<?xml version="1.0" encoding="iso-8859-1"?>
<!-- Generator: Adobe Illustrator 19.0.0, SVG Export Plug-In . SVG Version: 6.00 Build 0)  -->
<svg version="1.1" id="Layer_1" xmlns="http://www.w3.org/2000/svg" xmlns:xlink="http://www.w3.org/1999/xlink" x="0px" y="0px"
	 viewBox="0 0 512.001 512.001" style="enable-background:new 0 0 512.001 512.001;" xml:space="preserve">
<path style="fill:#FFFFFF;" d="M231.587,373.995v65.1c-17.977,0-32.551,14.573-32.551,32.551c0,17.977,14.573,32.551,32.551,32.551
	c12.351,0,22.966-6.96,28.481-17.097c5.515,10.137,16.13,17.097,28.481,17.097c17.977,0,32.551-14.574,32.551-32.551
	c0-17.977-14.573-32.551-32.551-32.551v-65.1"/>
<path style="fill:#FA9C1C;" d="M410.613,57v161.642c0,85.391-69.223,154.613-154.613,154.613s-154.613-69.223-154.613-154.613V57"/>
<path style="fill:#FBB049;" d="M101.387,57v161.642c0,85.391,69.223,154.613,154.613,154.613v-268.54
	C256,104.715,129.369,112.519,101.387,57z"/>
<path style="fill:#7B7B53;" d="M410.613,64.397l0.001,117.708c-4.788,2.77-10.347,4.356-16.277,4.356
	c-17.977,0-32.551-14.574-32.551-32.551v-8.138c0-8.989-7.287-16.275-16.275-16.275s-16.275,7.287-16.275,16.275v40.688
	c0,17.977-14.574,32.551-32.551,32.551c-17.977,0-32.551-14.574-32.551-32.551v-20.343c0-6.742-5.465-12.206-12.206-12.206
	s-12.206,5.465-12.206,12.206v69.169c0,17.977-14.574,32.551-32.551,32.551s-32.551-14.574-32.551-32.551v-77.307
	c0-11.236-9.108-20.344-20.344-20.344c-11.236,0-20.344,9.108-20.344,20.344v4.068c0,8.988-7.287,16.275-16.275,16.275
	c-8.989,0-16.275-7.287-16.275-16.275V56.259"/>
<ellipse style="fill:#5A5A28;" cx="256" cy="56.261" rx="154.611" ry="48.455"/>
<path style="fill:#1D1D1B;" d="M256,112.519c-42.069,0-81.725-5.167-111.662-14.549c-33.205-10.406-50.756-24.829-50.756-41.71
	s17.551-31.304,50.756-41.71C174.275,5.167,213.932,0,256,0s81.725,5.167,111.663,14.549c33.204,10.406,50.756,24.829,50.756,41.71
	s-17.552,31.304-50.756,41.71C337.725,107.352,298.069,112.519,256,112.519z M256,15.608c-90.958,0-146.81,23.677-146.81,40.651
	S165.042,96.91,256,96.91s146.81-23.677,146.81-40.651C402.811,39.285,346.958,15.608,256,15.608z"/>
<ellipse style="fill:#FFFFFF;" cx="256" cy="56.625" rx="48.826" ry="16.275"/>
<g>
	<path style="fill:#1D1D1B;" d="M256,80.339c-28.188,0-56.629-7.217-56.629-23.339c0-16.123,28.442-23.34,56.629-23.34
		s56.629,7.217,56.629,23.34C312.629,73.122,284.188,80.339,256,80.339z M215.898,57c4.144,2.927,17.853,7.731,40.102,7.731
		s35.957-4.803,40.102-7.731c-4.143-2.928-17.852-7.732-40.102-7.732C233.752,49.269,220.043,54.072,215.898,57z"/>
	<path style="fill:#1D1D1B;" d="M418.418,56.259c0-16.881-17.552-31.304-50.756-41.71C337.725,5.167,298.068,0,256,0
		s-81.725,5.167-111.662,14.549c-33.205,10.406-50.756,24.829-50.756,41.71c0,0.248,0.017,0.494,0.024,0.741h-0.024v161.641
		c0,78.53,56.024,144.217,130.201,159.204v54.204c-18.531,3.645-32.551,20.013-32.551,39.597c0,22.252,18.103,40.355,40.355,40.355
		c10.822,0,21.021-4.401,28.481-11.941c7.461,7.54,17.659,11.941,28.482,11.941c22.252,0,40.354-18.103,40.354-40.355
		c0-19.583-14.02-35.952-32.55-39.597v-56.067c70.099-17.989,122.064-81.71,122.064-157.342V57h-0.024
		C418.402,56.753,418.418,56.508,418.418,56.259z M256,15.608c90.958,0,146.81,23.677,146.81,40.651S346.958,96.91,256,96.91
		S109.19,73.234,109.19,56.259C109.19,39.285,165.042,15.608,256,15.608z M109.19,81.609c8.43,6.172,20.197,11.675,35.148,16.36
		c29.937,9.382,69.593,14.549,111.662,14.549c42.069,0,81.725-5.167,111.663-14.549c14.951-4.685,26.717-10.188,35.148-16.36v95.917
		c-2.7,0.981-5.567,1.501-8.472,1.501c-13.645,0-24.746-11.101-24.746-24.746v-8.138c0-13.277-10.802-24.079-24.08-24.079
		c-13.277,0-24.079,10.802-24.079,24.079v40.689c0,13.644-11.101,24.746-24.747,24.746c-13.645,0-24.747-11.101-24.747-24.746
		v-20.344c0-11.034-8.977-20.009-20.01-20.009c-11.034,0-20.01,8.977-20.01,20.009v69.17c0,13.644-11.101,24.746-24.747,24.746
		c-13.645,0-24.746-11.101-24.746-24.746v-77.307c0-15.52-12.627-28.148-28.148-28.148s-28.148,12.628-28.148,28.148v4.068
		c0,4.671-3.8,8.472-8.471,8.472c-4.671,0-8.471-3.8-8.471-8.472v-80.81H109.19z M288.551,446.9
		c13.645,0,24.746,11.101,24.746,24.746c0,13.645-11.1,24.747-24.746,24.747c-8.969,0-17.256-4.99-21.627-13.023l-6.855-12.6
		l-6.855,12.6c-4.37,8.033-12.658,13.023-21.626,13.023c-13.645,0-24.747-11.101-24.747-24.747
		c0-13.644,11.101-24.746,24.747-24.746h7.804v-66.684c5.462,0.558,11.003,0.843,16.609,0.843c8.412,0,16.676-0.643,24.747-1.882
		v67.722h7.804V446.9z M256,365.452c-80.951,0-146.81-65.859-146.81-146.811v-33.686c2.637,0.995,5.491,1.543,8.471,1.543
		c13.277,0,24.079-10.802,24.079-24.08v-4.068c0-6.915,5.625-12.54,12.54-12.54c6.914,0,12.54,5.625,12.54,12.54v77.307
		c0,22.252,18.102,40.354,40.354,40.354s40.355-18.102,40.355-40.354v-69.17c0-2.428,1.975-4.401,4.402-4.401
		c2.428,0,4.402,1.974,4.402,4.401v20.344c0,22.252,18.103,40.354,40.355,40.354c22.252,0,40.355-18.102,40.355-40.354v-40.689
		c0-4.67,3.8-8.471,8.471-8.471c4.671,0,8.472,3.8,8.472,8.471v8.138c0,22.252,18.102,40.354,40.354,40.354
		c2.86,0,5.698-0.318,8.472-0.913v24.918C402.811,299.593,336.952,365.452,256,365.452z"/>
</g>
<g>
</g>
<g>
</g>
<g>
</g>
<g>
</g>
<g>
</g>
<g>
</g>
<g>
</g>
<g>
</g>
<g>
</g>
<g>
</g>
<g>
</g>
<g>
</g>
<g>
</g>
<g>
</g>
<g>
</g>
</svg>
